<svg width="24" height="24" viewBox="0 0 24 24" fill="none" xmlns="http://www.w3.org/2000/svg">
<path d="M12 22C17.5228 22 22 17.5228 22 12C22 6.47715 17.5228 2 12 2C6.47715 2 2 6.47715 2 12C2 17.5228 6.47715 22 12 22ZM12.4579 9.38562C13.4451 9.779 14.2352 10.549 14.6538 11.5258L16.5075 15.8512C16.6853 16.266 16.2659 16.6855 15.851 16.5077L11.5256 14.6539C10.5489 14.2353 9.77885 13.4453 9.38546 12.4581L7.78022 8.43004C7.61771 8.02225 8.02199 7.61796 8.42979 7.78046L12.4579 9.38562Z" fill="white"/>
<path d="M3.5 12C3.5 7.30558 7.30558 3.5 12 3.5C16.6944 3.5 20.5 7.30558 20.5 12C20.5 16.6944 16.6944 20.5 12 20.5C7.30558 20.5 3.5 16.6944 3.5 12ZM12 2C6.47715 2 2 6.47715 2 12C2 17.5228 6.47715 22 12 22C17.5228 22 22 17.5228 22 12C22 6.47715 17.5228 2 12 2ZM7.08349 8.70767C6.67722 7.6882 7.68791 6.67747 8.7074 7.08372L12.7356 8.68888C13.9078 9.15602 14.8461 10.0704 15.3431 11.2303L17.1969 15.5557C17.6414 16.5929 16.5927 17.6415 15.5555 17.197L11.2301 15.3433C10.0703 14.8462 9.15587 13.908 8.68872 12.7358L7.08349 8.70767ZM8.69209 8.69233L10.0822 12.1805C10.4018 12.9825 11.0274 13.6245 11.821 13.9646L15.572 15.5721L13.9644 11.8212C13.6243 11.0276 12.9824 10.4019 12.1803 10.0823L8.69209 8.69233Z" fill="white"/>
</svg>
