<svg width="24" height="24" viewBox="0 0 24 24" fill="none" xmlns="http://www.w3.org/2000/svg">
<path d="M12 2.4C9.34904 2.4 7.20001 4.54903 7.20001 7.2C7.20001 9.85097 9.34904 12 12 12C14.6509 12 16.8 9.85097 16.8 7.2C16.8 4.54903 14.6509 2.4 12 2.4ZM8.40001 7.2C8.40001 5.21178 10.0118 3.6 12 3.6C13.9883 3.6 15.6 5.21178 15.6 7.2C15.6 9.18822 13.9883 10.8 12 10.8C10.0118 10.8 8.40001 9.18822 8.40001 7.2ZM6.01048 13.2C4.68379 13.2 3.60001 14.2643 3.60001 15.6C3.60001 17.6294 4.59938 19.1596 6.16199 20.1559C7.41987 20.958 9.03581 21.4139 10.8 21.5534V20.4C10.8 20.3831 10.8002 20.3663 10.8007 20.3495C9.21898 20.2129 7.83857 19.8017 6.80715 19.1441C5.54672 18.3404 4.80001 17.1706 4.80001 15.6C4.80001 14.936 5.33744 14.4 6.01048 14.4H14.5379C14.6021 14.1469 14.6888 13.8995 14.7988 13.6585C14.8706 13.5007 14.9501 13.3478 15.0367 13.2H6.01048ZM12.1781 22.6219C12.2969 22.7406 12.4375 22.8 12.6 22.8H15C15.1375 22.7938 15.2468 22.7657 15.3281 22.7156C15.4093 22.6656 15.4687 22.5968 15.5063 22.5094C15.5437 22.4219 15.5688 22.3282 15.5813 22.2281C15.5938 22.1281 15.6 22.025 15.6 21.9187V21.6C15.8875 21.5938 16.1125 21.5844 16.275 21.5719C16.4375 21.5593 16.5594 21.5125 16.6406 21.4313C16.7219 21.35 16.7688 21.2312 16.7813 21.075C16.7938 20.9188 16.8 20.6938 16.8 20.4H17.4C17.5313 20.4 17.6375 20.3719 17.7187 20.3156C17.8 20.2594 17.8625 20.1906 17.9063 20.1094C17.95 20.0281 17.9782 19.9344 17.9906 19.8281C18.0031 19.7219 18.0094 19.6126 18.0094 19.5C18.0031 19.4063 18 19.3157 18 19.2281V18.9937C18.2063 19.0687 18.4157 19.1219 18.6281 19.1531C18.8406 19.1844 19.0562 19.2 19.275 19.2C19.775 19.1938 20.2344 19.0969 20.6531 18.9094C21.0719 18.7219 21.4438 18.4594 21.7687 18.1219C22.0938 17.7844 22.3469 17.4 22.5281 16.9687C22.7094 16.5374 22.8 16.0812 22.8 15.6C22.8 15.1 22.7063 14.6312 22.5187 14.1937C22.3313 13.7562 22.075 13.375 21.75 13.05C21.425 12.725 21.0438 12.4687 20.6063 12.2813C20.1688 12.0937 19.7 12 19.2 12C18.7126 12.0125 18.2531 12.1062 17.8219 12.2813C17.3906 12.4562 17.0094 12.7062 16.6781 13.0313C16.3469 13.3562 16.0843 13.7312 15.8906 14.1563C15.6968 14.5812 15.6 15.0374 15.6 15.525C15.6 15.8188 15.6343 16.1281 15.7031 16.4531L12.1781 19.9781C12.0594 20.0969 12 20.2375 12 20.4V22.2C12 22.3625 12.0594 22.5031 12.1781 22.6219ZM20.7374 14.0626C20.9125 14.2375 21 14.45 21 14.7C21 14.95 20.9125 15.1625 20.7374 15.3374C20.5625 15.5125 20.35 15.6 20.1 15.6C19.85 15.6 19.6375 15.5125 19.4626 15.3374C19.2875 15.1625 19.2 14.95 19.2 14.7C19.2 14.45 19.2875 14.2375 19.4626 14.0626C19.6375 13.8875 19.85 13.8 20.1 13.8C20.35 13.8 20.5625 13.8875 20.7374 14.0626Z" fill="white"/>
</svg>
