<svg width="100" height="32" viewBox="0 0 100 32" fill="none" xmlns="http://www.w3.org/2000/svg">
<path d="M0.957976 21.9696C0.319325 21.9696 0 21.6503 0 21.0116C0 20.373 0.319325 20.0536 0.957976 20.0536C5.21565 20.0536 8.1428 19.7343 9.73943 19.0957C10.4845 18.7976 10.8571 18.4889 10.8571 18.1696C10.8571 17.8503 10.591 17.5629 10.0588 17.3074C9.54783 17.052 8.67501 16.722 7.44028 16.3175C6.22685 15.9131 5.3008 15.5724 4.66215 15.2957C1.55405 13.9971 0 12.0279 0 9.38817C0 7.66381 0.745093 6.2162 2.23528 5.04534C3.72546 3.85319 5.51369 3.25712 7.59995 3.25712C8.74952 3.25712 9.70749 3.59773 10.4739 4.27896C11.2615 4.96019 11.6554 5.77979 11.6554 6.73777C11.6554 7.69574 11.2828 8.54728 10.5377 9.29237C9.79265 10.0375 9.28173 10.41 9.00498 10.41C8.36633 10.41 8.047 10.0907 8.047 9.45203C8.047 9.17528 8.32375 8.76016 8.87725 8.20666C9.45203 7.63188 9.73943 7.19547 9.73943 6.89743C9.73943 6.38651 9.53719 5.97139 9.13271 5.65206C8.74952 5.33273 8.24924 5.17307 7.63188 5.17307C6.05654 5.17307 4.70473 5.57755 3.57644 6.38651C2.46945 7.17418 1.91595 8.13215 1.91595 9.26044C1.91595 10.3887 2.22463 11.2722 2.842 11.9108C3.48065 12.5495 4.19381 13.0391 4.98148 13.3797C5.79043 13.6991 6.59939 13.9971 7.40835 14.2738C8.21731 14.5293 8.88789 14.7635 9.4201 14.9764C9.9736 15.168 10.5271 15.4128 11.0806 15.7108C12.2089 16.3282 12.773 17.1371 12.773 18.1377C12.773 19.4363 11.8363 20.4049 9.96295 21.0435C8.11087 21.6609 5.10921 21.9696 0.957976 21.9696Z" fill="url(#paint0_linear_22_406)"/>
<path d="M28.4349 19.3511C28.4349 19.3511 28.7755 19.266 29.4568 19.0957C30.0954 19.0957 30.4147 19.415 30.4147 20.0536C30.4147 20.522 30.0954 20.8626 29.4568 21.0755C29.0736 21.2032 28.6904 21.2671 28.3072 21.2671C27.9453 21.2671 27.594 21.1819 27.2534 21.0116C26.9128 20.8413 26.6467 20.5858 26.4551 20.2452C26.1358 19.6917 25.9016 19.0957 25.7526 18.457L25.6249 17.9142C25.263 18.5315 24.3795 19.2553 22.9745 20.0856C21.5907 20.9158 20.1112 21.3309 18.5358 21.3309C17.6843 21.3309 16.9392 21.0116 16.3006 20.373C15.6619 19.7343 15.3426 18.9892 15.3426 18.1377C15.3426 16.0727 16.1941 14.2845 17.8972 12.773C19.6003 11.2403 21.3246 10.4739 23.0703 10.4739C24.0282 10.4739 24.8478 10.6548 25.5291 11.0167C26.2316 11.3573 26.5828 11.7086 26.5828 12.0705C26.5828 12.7092 26.2635 13.0285 25.6249 13.0285C25.4971 13.0285 25.1885 12.922 24.6988 12.7092C24.2092 12.4963 23.6663 12.3898 23.0703 12.3898C21.9207 12.3898 20.6647 12.954 19.3022 14.0823C17.9398 15.1892 17.2585 16.5411 17.2585 18.1377C17.2585 18.457 17.3863 18.755 17.6417 19.0318C17.9185 19.2873 18.2165 19.415 18.5358 19.415C19.7919 19.415 20.9627 19.085 22.0484 18.4251C23.1341 17.7439 23.826 17.1904 24.124 16.7646C24.4221 16.3175 24.6669 15.9131 24.8585 15.5511C25.0501 15.1892 25.1885 14.9551 25.2736 14.8486C25.3801 14.7209 25.5929 14.657 25.9123 14.657C26.2316 14.657 26.4764 14.7741 26.6467 15.0083C26.817 15.2425 26.9767 15.615 27.1257 16.1259C27.2747 16.6156 27.4237 17.1691 27.5728 17.7864C27.7218 18.4038 27.8495 18.8189 27.9559 19.0318C28.0837 19.2447 28.2433 19.3511 28.4349 19.3511Z" fill="url(#paint1_linear_22_406)"/>
<path d="M49.5892 21.0755C48.4397 21.4587 47.5456 21.6503 46.9069 21.6503C46.2683 21.6503 45.768 21.4161 45.4061 20.9477C45.0442 20.4794 44.7142 19.6811 44.4162 18.5528C44.1394 17.4245 43.9265 16.8604 43.7775 16.8604C43.224 16.8604 42.6386 17.7119 42.0212 19.415C41.7871 20.0536 41.4039 20.6391 40.8717 21.1713C40.3395 21.7035 39.6689 21.9696 38.8599 21.9696C38.0722 21.9696 37.4549 21.6183 37.0078 20.9158C36.5608 20.2133 36.2947 19.4469 36.2095 18.6167C36.1456 17.7864 36.0392 17.02 35.8902 16.3175C35.7412 15.615 35.4963 15.2638 35.1557 15.2638C34.9216 15.2638 34.7513 15.3276 34.6448 15.4554C34.5384 15.5831 34.4426 15.7108 34.3574 15.8385C34.2936 15.945 34.219 16.0621 34.1339 16.1898C34.07 16.2962 33.9849 16.4453 33.8784 16.6369C33.7933 16.8285 33.6868 17.0307 33.5591 17.2436C33.1333 17.9887 32.7927 18.5422 32.5373 18.9041C32.0263 19.713 31.2706 20.3304 30.2701 20.7562C29.8869 20.9265 29.5782 21.0116 29.344 21.0116C28.7054 21.0116 28.386 20.6923 28.386 20.0536C28.386 19.6492 28.7266 19.3192 29.4079 19.0637C30.0891 18.8083 30.5681 18.4464 30.8448 17.978C31.1429 17.4884 31.4728 16.9349 31.8347 16.3175C32.1967 15.7002 32.4415 15.285 32.5692 15.0722C32.7182 14.8593 32.8992 14.6038 33.112 14.3058C33.3249 13.9865 33.5165 13.7842 33.6868 13.6991C34.1339 13.4649 34.6235 13.3478 35.1557 13.3478C36.0286 13.3478 36.6885 13.6991 37.1356 14.4016C37.5826 15.1041 37.8381 15.8705 37.9019 16.7007C37.9871 17.531 38.1042 18.2973 38.2532 18.9999C38.4022 19.7024 38.647 20.0536 38.9876 20.0536C39.3283 20.0536 39.6476 19.7875 39.9456 19.2553C40.2649 18.7231 40.5417 18.1377 40.7759 17.499C41.01 16.8604 41.3826 16.275 41.8935 15.7427C42.4257 15.2105 43.0537 14.9444 43.7775 14.9444C44.331 14.9444 44.7355 15.0828 44.991 15.3596C45.2464 15.615 45.4274 15.8173 45.5338 15.9663C45.6615 16.1153 45.768 16.3388 45.8531 16.6369C45.9596 16.9349 46.0341 17.1584 46.0767 17.3074C46.1192 17.4352 46.1831 17.6693 46.2683 18.01C46.5237 19.1808 46.7579 19.7556 46.9708 19.7343C47.3753 19.7343 47.8968 19.6279 48.5355 19.415C49.1741 19.2021 49.5254 19.0957 49.5892 19.0957C50.2279 19.0957 50.5472 19.415 50.5472 20.0536C50.5472 20.522 50.2279 20.8626 49.5892 21.0755Z" fill="url(#paint2_linear_22_406)"/>
<path d="M55.8762 22.8318C55.7485 22.6615 55.3653 22.1718 54.7266 21.3629C54.088 20.5539 53.6516 19.9898 53.4174 19.6704C53.2045 19.3298 52.8958 18.8402 52.4914 18.2015C51.7888 17.0946 51.4376 15.9663 51.4376 14.8167C51.4376 13.6671 51.7463 12.6559 52.3636 11.7831C53.0023 10.9103 53.8006 10.4739 54.7586 10.4739C55.7165 10.4739 56.5574 10.7613 57.2812 11.3361C58.0051 11.9108 58.484 12.7304 58.7182 13.7949C58.7608 13.9652 58.7821 14.1355 58.7821 14.3058C58.7821 14.9444 58.4627 15.2638 57.8241 15.2638C57.3558 15.2638 57.0364 14.9444 56.8661 14.3058C56.5681 13.0285 55.9294 12.3898 54.9502 12.3898C54.418 12.3898 54.0135 12.6559 53.7367 13.1881C53.4813 13.6991 53.3535 14.21 53.3535 14.7209C53.3535 15.2318 53.4174 15.6895 53.5451 16.094C53.6942 16.4985 53.9283 16.9668 54.2477 17.499C54.5883 18.01 54.865 18.4144 55.0779 18.7125C55.6527 19.5214 56.4084 20.49 57.3451 21.6183C58.7501 20.5752 60.1658 19.8088 61.5921 19.3192C62.0392 19.1702 62.2947 19.0957 62.3585 19.0957C62.9972 19.0957 63.3165 19.415 63.3165 20.0536C63.3165 20.522 62.9972 20.8626 62.3585 21.0755C61.1025 21.48 59.7933 22.1825 58.4308 23.183C59.4314 24.7371 59.9316 26.0463 59.9316 27.1107C59.9316 28.1751 59.5059 29.2396 58.6543 30.304C57.8028 31.3897 56.8768 31.9325 55.8762 31.9325C54.8757 31.9325 54.0454 31.5919 53.3855 30.9107C52.7255 30.2295 52.3956 29.3779 52.3956 28.3561C52.3956 26.7808 53.5558 24.9393 55.8762 22.8318ZM56.9619 24.3965C55.195 26.057 54.3115 27.3768 54.3115 28.3561C54.3115 28.867 54.4499 29.2715 54.7266 29.5695C55.0034 29.8676 55.3759 30.0166 55.8443 30.0166C56.3339 30.0166 56.8129 29.6653 57.2812 28.9628C57.7709 28.2603 58.0157 27.5897 58.0157 26.9511C58.0157 26.3337 57.6644 25.4822 56.9619 24.3965Z" fill="url(#paint3_linear_22_406)"/>
<path d="M64.4147 20.1175C64.3934 20.1175 64.2337 20.2027 63.9357 20.373C63.1693 20.7987 62.6052 21.0116 62.2433 21.0116C61.6046 21.0116 61.2853 20.6923 61.2853 20.0536C61.2853 19.6492 61.6046 19.3192 62.2433 19.0637C62.3497 19.0212 62.6052 18.8934 63.0096 18.6805C63.4141 18.4677 63.6483 18.3399 63.7122 18.2973C63.627 18.1058 63.5844 17.8184 63.5844 17.4352C63.5844 15.5192 64.255 13.88 65.5962 12.5176C66.9373 11.1551 68.1614 10.4739 69.2684 10.4739C70.3754 10.4739 71.2482 10.74 71.8869 11.2722C72.5255 11.7831 72.8449 12.4111 72.8449 13.1562C72.8449 13.88 72.6746 14.508 72.3339 15.0402C71.9933 15.5724 71.4611 16.094 70.7373 16.6049C69.7368 17.3287 68.2785 18.1696 66.3626 19.1276C67.2141 19.745 68.3956 20.0536 69.9071 20.0536C71.4185 20.0536 72.9087 19.8088 74.3776 19.3192C74.8247 19.1702 75.0801 19.0957 75.144 19.0957C75.7827 19.0957 76.102 19.415 76.102 20.0536C76.102 20.522 75.7827 20.8626 75.144 21.0755C73.3558 21.6716 71.6314 21.9696 69.9709 21.9696C67.6079 21.9696 65.7558 21.3522 64.4147 20.1175ZM65.5004 17.4352C69.1194 15.6257 70.9289 14.2632 70.9289 13.3478C70.9289 12.7092 70.3967 12.3898 69.3323 12.3898C68.6936 12.3898 67.8953 12.9007 66.9373 13.9226C65.9794 14.9231 65.5004 16.094 65.5004 17.4352Z" fill="url(#paint4_linear_22_406)"/>
<path d="M79.2438 17.02C81.3727 15.7002 82.4371 14.3696 82.4371 13.0285C82.4371 12.6027 82.2774 12.2302 81.9581 11.9108C81.6388 11.5915 81.2237 11.4319 80.7127 11.4319C80.2018 11.4319 79.7761 11.7831 79.4354 12.4856C79.0948 13.1881 78.9245 13.9545 78.9245 14.7848C78.9245 15.615 79.031 16.3601 79.2438 17.02ZM92.9748 0.957975L92.911 1.59663C92.8286 2.42035 92.7519 3.20302 92.6809 3.94463C92.6143 4.64024 92.5528 4.80079 92.4962 5.42415C92.1766 8.94528 92.0169 11.8127 92.0169 13.0285C92.0169 14.689 92.1233 15.7534 92.3362 16.2217C92.5065 16.094 92.762 15.8598 93.1026 15.5192L94.1883 14.4335C95.125 13.4968 96.4661 12.5814 98.2118 11.6873C98.5524 11.517 98.8291 11.4319 99.042 11.4319C99.6807 11.4319 100 11.7512 100 12.3898C100 12.7517 99.6807 13.0923 99.042 13.4117C98.0415 13.9226 97.1154 14.5187 96.2639 15.1999C95.4337 15.8385 94.8056 16.4133 94.3799 16.9242C93.358 18.159 92.6768 18.7763 92.3362 18.7763C91.6337 18.7763 91.0908 18.3399 90.7076 17.4671C90.3457 16.573 90.1435 15.5299 90.1009 14.3377C89.1004 16.8072 87.9189 18.7018 86.5564 20.0217C85.2152 21.3203 83.757 21.9696 82.1816 21.9696C80.6276 21.9696 79.3609 21.2032 78.3817 19.6704C77.892 19.9259 77.5195 20.0536 77.264 20.0536C77.0299 20.0536 76.817 19.9685 76.6254 19.7982C76.4551 19.6066 76.3699 19.4256 76.3699 19.2553C76.3699 19.085 76.3699 18.9786 76.3699 18.936C76.3912 18.8721 76.4018 18.8189 76.4018 18.7763C76.4231 18.7338 76.4444 18.6912 76.4657 18.6486C76.487 18.606 76.5083 18.5741 76.5296 18.5528C76.5509 18.5102 76.5828 18.4677 76.6254 18.4251C76.6892 18.3612 76.7318 18.3293 76.7531 18.3293C76.9447 18.2441 77.0511 18.1909 77.0724 18.1696C77.115 18.1483 77.264 18.0738 77.5195 17.9461C77.1789 16.9881 77.0086 15.8705 77.0086 14.5932C77.0086 13.2946 77.3492 12.1237 78.0304 11.0806C78.7329 10.0375 79.6164 9.5159 80.6808 9.5159C81.7452 9.5159 82.6181 9.86716 83.2993 10.5697C84.0018 11.2509 84.3531 12.0705 84.3531 13.0285C84.3531 15.1147 82.9267 17.0307 80.0741 18.7763C80.6489 19.6279 81.3301 20.0536 82.1178 20.0536C84.1402 20.0536 85.9816 18.4038 87.6421 15.1041C88.7705 12.8472 89.6581 9.44745 90.3048 5.90265C90.42 5.27098 90.5276 5.1178 90.6276 4.44523C90.7921 3.33821 90.9358 2.17579 91.0589 0.957975C91.1228 0.319325 91.4421 0 92.0169 0C92.6555 0 92.9748 0.319325 92.9748 0.957975Z" fill="url(#paint5_linear_22_406)"/>
<path d="M90.3048 5.90265C90.42 5.27098 90.5276 5.1178 90.6276 4.44523C90.6276 4.44523 87.6421 4.75594 86.7866 5.25489C86.0616 5.67777 86.0907 6.25278 86.5372 6.4016C86.9836 6.55041 90.3048 5.90265 90.3048 5.90265Z" fill="url(#paint6_linear_22_406)"/>
<path d="M92.6809 3.94463C92.6143 4.64024 92.5528 4.80079 92.4962 5.42415C92.4962 5.42415 95.5182 4.50647 96.0171 4.257C96.7282 3.90147 98.5119 3.25911 98.2118 2.51069C97.9117 1.76227 92.6809 3.94463 92.6809 3.94463Z" fill="url(#paint7_linear_22_406)"/>
<defs>
<linearGradient id="paint0_linear_22_406" x1="-1.055e-06" y1="3.83191" x2="25.6658" y2="60.0944" gradientUnits="userSpaceOnUse">
<stop stop-color="#105BDB"/>
<stop offset="1" stop-color="#50FEFE"/>
</linearGradient>
<linearGradient id="paint1_linear_22_406" x1="-1.055e-06" y1="3.83191" x2="25.6658" y2="60.0944" gradientUnits="userSpaceOnUse">
<stop stop-color="#105BDB"/>
<stop offset="1" stop-color="#50FEFE"/>
</linearGradient>
<linearGradient id="paint2_linear_22_406" x1="-1.055e-06" y1="3.83191" x2="25.6658" y2="60.0944" gradientUnits="userSpaceOnUse">
<stop stop-color="#105BDB"/>
<stop offset="1" stop-color="#50FEFE"/>
</linearGradient>
<linearGradient id="paint3_linear_22_406" x1="-1.055e-06" y1="3.83191" x2="25.6658" y2="60.0944" gradientUnits="userSpaceOnUse">
<stop stop-color="#105BDB"/>
<stop offset="1" stop-color="#50FEFE"/>
</linearGradient>
<linearGradient id="paint4_linear_22_406" x1="-1.055e-06" y1="3.83191" x2="25.6658" y2="60.0944" gradientUnits="userSpaceOnUse">
<stop stop-color="#105BDB"/>
<stop offset="1" stop-color="#50FEFE"/>
</linearGradient>
<linearGradient id="paint5_linear_22_406" x1="-1.055e-06" y1="3.83191" x2="25.6658" y2="60.0944" gradientUnits="userSpaceOnUse">
<stop stop-color="#105BDB"/>
<stop offset="1" stop-color="#50FEFE"/>
</linearGradient>
<linearGradient id="paint6_linear_22_406" x1="-1.055e-06" y1="3.83191" x2="25.6658" y2="60.0944" gradientUnits="userSpaceOnUse">
<stop stop-color="#105BDB"/>
<stop offset="1" stop-color="#50FEFE"/>
</linearGradient>
<linearGradient id="paint7_linear_22_406" x1="-1.055e-06" y1="3.83191" x2="25.6658" y2="60.0944" gradientUnits="userSpaceOnUse">
<stop stop-color="#105BDB"/>
<stop offset="1" stop-color="#50FEFE"/>
</linearGradient>
</defs>
</svg>
