<svg width="30" height="30" viewBox="0 0 30 30" fill="none" xmlns="http://www.w3.org/2000/svg">
<path d="M15 5.625C9.82233 5.625 5.625 9.82233 5.625 15C5.625 20.1776 9.82233 24.375 15 24.375C20.1776 24.375 24.375 20.1776 24.375 15C24.375 14.5295 24.3404 14.0672 24.2735 13.6154C24.1894 13.0477 24.6049 12.5 25.1786 12.5C25.6423 12.5 26.0487 12.8202 26.1191 13.2785C26.2052 13.8398 26.25 14.4146 26.25 15C26.25 21.2132 21.2132 26.25 15 26.25C8.7868 26.25 3.75 21.2132 3.75 15C3.75 8.7868 8.7868 3.75 15 3.75C17.8814 3.75 20.5096 4.8332 22.5 6.6146V5.3125C22.5 4.79474 22.9198 4.375 23.4375 4.375C23.9552 4.375 24.375 4.79474 24.375 5.3125V9.0625C24.375 9.58026 23.9552 10 23.4375 10H19.6875C19.1698 10 18.75 9.58026 18.75 9.0625C18.75 8.54474 19.1698 8.125 19.6875 8.125H21.3739C19.7011 6.57354 17.4614 5.625 15 5.625Z" fill="white"/>
<path d="M12.3097 11.7273V19H11.429V12.6506H11.3864L9.6108 13.8295V12.9347L11.429 11.7273H12.3097ZM16.7734 19.0994C16.2384 19.0994 15.7827 18.9538 15.4062 18.6626C15.0298 18.3691 14.7422 17.9441 14.5433 17.3878C14.3445 16.8291 14.245 16.1544 14.245 15.3636C14.245 14.5777 14.3445 13.9065 14.5433 13.3501C14.7446 12.7914 15.0334 12.3653 15.4098 12.0717C15.7886 11.7758 16.2431 11.6278 16.7734 11.6278C17.3037 11.6278 17.7571 11.7758 18.1335 12.0717C18.5123 12.3653 18.8011 12.7914 19 13.3501C19.2012 13.9065 19.3018 14.5777 19.3018 15.3636C19.3018 16.1544 19.2024 16.8291 19.0036 17.3878C18.8047 17.9441 18.517 18.3691 18.1406 18.6626C17.7642 18.9538 17.3085 19.0994 16.7734 19.0994ZM16.7734 18.3182C17.3037 18.3182 17.7157 18.0625 18.0092 17.5511C18.3028 17.0398 18.4496 16.3106 18.4496 15.3636C18.4496 14.7339 18.3821 14.1977 18.2472 13.755C18.1146 13.3123 17.9228 12.9749 17.6719 12.7429C17.4233 12.5109 17.1238 12.3949 16.7734 12.3949C16.2479 12.3949 15.8371 12.6541 15.5412 13.1726C15.2453 13.6887 15.0973 14.419 15.0973 15.3636C15.0973 15.9934 15.1636 16.5284 15.2962 16.9688C15.4287 17.4091 15.6193 17.7441 15.8679 17.9737C16.1188 18.2034 16.4207 18.3182 16.7734 18.3182Z" fill="white"/>
</svg>
