<svg width="30" height="30" viewBox="0 0 30 30" fill="none" xmlns="http://www.w3.org/2000/svg">
<path d="M7.18262 3.75C5.9745 3.75 4.99512 4.72938 4.99512 5.9375V24.0625C4.99512 25.2706 5.9745 26.25 7.18262 26.25H11.5576C12.7658 26.25 13.7451 25.2706 13.7451 24.0625V5.9375C13.7451 4.72938 12.7658 3.75 11.5576 3.75H7.18262ZM18.4326 3.75C17.2245 3.75 16.2451 4.72938 16.2451 5.9375V24.0625C16.2451 25.2706 17.2245 26.25 18.4326 26.25H22.8076C24.0158 26.25 24.9951 25.2706 24.9951 24.0625V5.9375C24.9951 4.72938 24.0158 3.75 22.8076 3.75H18.4326Z" fill="white"/>
</svg>
