<svg width="30" height="30" viewBox="0 0 30 30" fill="none" xmlns="http://www.w3.org/2000/svg">
<g clip-path="url(#clip0_32_231)">
<path d="M2.5 7.8125C2.5 5.56884 4.31884 3.75 6.5625 3.75H23.4375C25.6811 3.75 27.5 5.56884 27.5 7.8125V15H25.625V7.8125C25.625 6.60438 24.6456 5.625 23.4375 5.625H6.5625C5.35438 5.625 4.375 6.60438 4.375 7.8125V19.6875C4.375 20.8956 5.35438 21.875 6.5625 21.875H13.75V23.75H6.5625C4.31884 23.75 2.5 21.9311 2.5 19.6875V7.8125ZM17.5 16.25C16.1193 16.25 15 17.3693 15 18.75V25C15 26.3808 16.1193 27.5 17.5 27.5H26.25C27.6308 27.5 28.75 26.3808 28.75 25V18.75C28.75 17.3693 27.6308 16.25 26.25 16.25H17.5Z" fill="white"/>
</g>
<defs>
<clipPath id="clip0_32_231">
<rect width="30" height="30" fill="white"/>
</clipPath>
</defs>
</svg>
