<svg width="30" height="30" viewBox="0 0 30 30" fill="none" xmlns="http://www.w3.org/2000/svg">
<g clip-path="url(#clip0_32_223)">
<path d="M22.1875 3.75C24.4311 3.75 26.25 5.56884 26.25 7.8125V15.0273C25.671 14.6566 25.0419 14.3573 24.375 14.1419V10.625H5.625V22.1875C5.625 23.3956 6.60438 24.375 7.8125 24.375H14.1419C14.3573 25.0419 14.6566 25.671 15.0273 26.25H7.8125C5.56884 26.25 3.75 24.4311 3.75 22.1875V7.8125C3.75 5.56884 5.56884 3.75 7.8125 3.75H22.1875ZM22.1875 5.625H7.8125C6.60438 5.625 5.625 6.60438 5.625 7.8125V8.75H24.375V7.8125C24.375 6.60438 23.3956 5.625 22.1875 5.625ZM21.875 28.75C25.672 28.75 28.75 25.6721 28.75 21.875C28.75 18.0779 25.672 15 21.875 15C18.078 15 15 18.0779 15 21.875C15 25.6721 18.078 28.75 21.875 28.75ZM20.7455 18.7501C20.8905 18.7501 21.0226 18.7904 21.1418 18.8713L24.6499 21.1715C24.7588 21.2416 24.8442 21.3345 24.9064 21.4505C24.9685 21.5639 24.9996 21.6877 24.9996 21.8224C24.9996 21.9519 24.9699 22.0756 24.9102 22.1943C24.8949 22.2249 24.8781 22.2536 24.8598 22.2809C24.8066 22.3599 24.7405 22.4251 24.6616 22.4774L21.1535 24.8709C21.1066 24.9019 21.0594 24.9276 21.0112 24.9474C20.9926 24.9551 20.974 24.9619 20.9552 24.9679C20.8905 24.9891 20.8206 24.9999 20.7455 24.9999C20.6471 24.9999 20.5525 24.9797 20.4619 24.9395C20.3712 24.8962 20.291 24.8395 20.221 24.7697C20.1536 24.6967 20.0994 24.6131 20.0579 24.5191C20.019 24.4247 19.9996 24.3263 19.9996 24.2237V19.5263C19.9996 19.4211 20.019 19.3215 20.0579 19.2271C20.0994 19.1327 20.1536 19.0507 20.221 18.9806C20.2884 18.9105 20.3674 18.8552 20.458 18.8146C20.5486 18.7717 20.6445 18.7501 20.7455 18.7501Z" fill="white"/>
</g>
<defs>
<clipPath id="clip0_32_223">
<rect width="30" height="30" fill="white"/>
</clipPath>
</defs>
</svg>
