<svg width="30" height="30" viewBox="0 0 30 30" fill="none" xmlns="http://www.w3.org/2000/svg">
<path d="M18.75 5.31189C18.75 3.96361 17.1569 3.24832 16.1494 4.14417L10.5349 9.13576C10.3633 9.28834 10.1417 9.37262 9.91201 9.37262H5.3125C3.7592 9.37262 2.5 10.6318 2.5 12.1851V17.8075C2.5 19.3608 3.7592 20.62 5.3125 20.62H9.91195C10.1416 20.62 10.3633 20.7042 10.5349 20.8569L16.1493 25.849C17.1569 26.745 18.75 26.0298 18.75 24.6814V5.31189ZM11.7807 10.537L16.875 6.00787V23.9854L11.7808 19.4557C11.2659 18.9979 10.6009 18.745 9.91195 18.745H5.3125C4.79474 18.745 4.375 18.3253 4.375 17.8075V12.1851C4.375 11.6673 4.79474 11.2476 5.3125 11.2476H9.91201C10.6009 11.2476 11.2659 10.9948 11.7807 10.537ZM23.7395 7.37105C24.1555 7.06287 24.7426 7.15035 25.0509 7.56641C26.5896 9.64401 27.5 12.2168 27.5 14.9994C27.5 17.782 26.5896 20.3547 25.0509 22.4324C24.7426 22.8485 24.1555 22.936 23.7395 22.6278C23.3234 22.3196 23.236 21.7325 23.5441 21.3164C24.8519 19.5508 25.625 17.3668 25.625 14.9994C25.625 12.6321 24.8519 10.4481 23.5441 8.6824C23.236 8.26634 23.3234 7.67922 23.7395 7.37105ZM21.4287 10.461C21.884 10.2146 22.453 10.3839 22.6995 10.8392C23.3697 12.0774 23.75 13.4954 23.75 14.9994C23.75 16.5034 23.3697 17.9214 22.6995 19.1596C22.453 19.6149 21.884 19.7843 21.4287 19.5378C20.9734 19.2913 20.804 18.7222 21.0505 18.267C21.5761 17.296 21.875 16.184 21.875 14.9994C21.875 13.8148 21.5761 12.7027 21.0505 11.7318C20.804 11.2765 20.9734 10.7075 21.4287 10.461Z" fill="white"/>
</svg>
